<svg id="bold" height="512" viewBox="0 0 24 24" width="512" xmlns="http://www.w3.org/2000/svg"><path d="m16.124 24h-8.248c-1.578 0-2.894-1.233-2.994-2.808l-.12-1.878c-.035-.551.383-1.027.935-1.062.54-.04 1.025.383 1.062.934l.12 1.878c.032.525.471.936.997.936h8.248c.526 0 .965-.411.998-.936l.12-1.878c.036-.551.514-.973 1.062-.934.552.035.97.511.935 1.062l-.12 1.878c-.101 1.575-1.417 2.808-2.995 2.808z"/><path d="m5.239 11.5c-.525 0-.966-.41-.997-.941l-.221-3.75c-.032-.552.388-1.025.94-1.057.55-.038 1.024.388 1.057.939l.221 3.75c.032.551-.388 1.024-.939 1.057-.021.002-.041.002-.061.002z"/><path d="m18.761 11.5c-.021 0-.041 0-.063-.002-.551-.034-.971-.508-.937-1.06l.23-3.75c.033-.551.496-.974 1.06-.937.551.034.971.508.937 1.06l-.23 3.75c-.032.531-.473.939-.997.939z"/><path d="m20.25 7h-16.5c-.965 0-1.75-.785-1.75-1.75v-.5c0-.965.785-1.75 1.75-1.75h16.5c.965 0 1.75.785 1.75 1.75v.5c0 .965-.785 1.75-1.75 1.75z"/><path d="m19.376 20h-14.752c-.872 0-1.618-.652-1.733-1.517l-.876-6.506c-.01-.083-.015-.154-.015-.227 0-.965.785-1.75 1.75-1.75h16.5c.965 0 1.75.785 1.75 1.75 0 .073-.005.144-.013.214-.001.004-.001.008-.002.013l-.876 6.507c-.115.864-.861 1.516-1.733 1.516zm1.866-8.124h.01z"/><path d="m19 4.75c-.408 0-13.819.13-14.342-.06-.52-.189-.787-.763-.598-1.282l.521-1.434c.43-1.181 1.563-1.974 2.819-1.974h9.2c1.257 0 2.39.793 2.818 1.975l.521 1.434c.189.519-.078 1.093-.598 1.282-.112.04-.228.059-.341.059z"/></svg>