<svg id="bold" height="512" viewBox="0 0 24 24" width="512" xmlns="http://www.w3.org/2000/svg"><path d="m20 11h-16c-.552 0-1-.448-1-1s.448-1 1-1h16c.552 0 1 .448 1 1s-.448 1-1 1z"/><path d="m18 10.5c-.552 0-1-.448-1-1 0-2.481-2.019-4.5-4.5-4.5h-1c-2.481 0-4.5 2.019-4.5 4.5 0 .552-.448 1-1 1s-1-.448-1-1c0-3.584 2.916-6.5 6.5-6.5h1c3.584 0 6.5 2.916 6.5 6.5 0 .552-.448 1-1 1z"/><path d="m12 7c-.552 0-1-.448-1-1v-2.438c0-1.379.935-2.576 2.272-2.911l2.485-.621c.536-.133 1.079.192 1.213.728s-.192 1.079-.728 1.213l-2.485.621c-.445.111-.757.51-.757.97v2.438c0 .552-.448 1-1 1z"/><path d="m18.08 9.503c-.548-.055-1.033.366-1.076.917l-.287 3.58h-9.434l-.286-3.58c-.044-.551-.533-.972-1.077-.917-.55.044-.961.526-.917 1.077l.853 10.66c.124 1.548 1.437 2.76 2.99 2.76h6.308c1.553 0 2.866-1.212 2.99-2.761l.853-10.66c.044-.55-.367-1.032-.917-1.076zm-2.926 12.497h-6.308c-.518 0-.956-.404-.997-.92l-.166-2.08h8.634l-.166 2.08c-.042.516-.48.92-.997.92z"/></svg>