<svg id="bold" height="512" viewBox="0 0 24 24" width="512" xmlns="http://www.w3.org/2000/svg"><path d="m18.25 9.5h-14.5c-.414 0-.75-.336-.75-.75 0-2.206 1.891-3.983 4.056-3.725.509-1.773 2.082-3.025 3.944-3.025s3.435 1.252 3.944 3.025c2.163-.257 4.056 1.519 4.056 3.725 0 .414-.336.75-.75.75z"/><path d="m18.13 8.68c-.189 0-.373-.071-.513-.203l-2.25-2.109c-.255-.238-.312-.62-.137-.922l2.64-4.57c.224-.397.598-.688 1.049-.813.448-.123.935-.062 1.334.167l.871.5c.828.483 1.118 1.554.65 2.388l-2.995 5.188c-.114.198-.313.333-.54.367-.036.004-.073.007-.109.007z"/><path d="m19.25 24h-16.5c-1.517 0-2.75-1.233-2.75-2.75v-.5c0-.414.336-.75.75-.75h20.5c.414 0 .75.336.75.75v.5c0 1.517-1.233 2.75-2.75 2.75z"/><path d="m11.653 21.25h-1.306c-4.136 0-7.559-3.104-7.961-7.219l-.377-3.841c0-.001 0-.002 0-.003-.003-.031-.009-.155-.009-.187 0-1.103.897-2 2-2h14c1.103 0 2 .897 2 2 0 .032-.006.156-.009.187l-.377 3.844c-.403 4.115-3.825 7.219-7.961 7.219zm-7.653-11.25.376 3.835c.302 3.087 2.87 5.415 5.971 5.415h1.306c3.102 0 5.669-2.328 5.971-5.415l.376-3.84z"/><path d="m18 18c-.397 0-.772-.238-.929-.629-.206-.513.044-1.095.557-1.3l3.5-1.4c.53-.212.872-.716.872-1.286 0-.763-.622-1.385-1.385-1.385h-1.115c-.552 0-1-.448-1-1s.448-1 1-1h1.115c1.866 0 3.385 1.519 3.385 3.385 0 1.392-.835 2.625-2.128 3.143l-3.5 1.4c-.122.049-.248.072-.372.072z"/></svg>