<svg id="bold" xmlns="http://www.w3.org/2000/svg" viewBox="0 0 512 511.98"><defs><style>.cls-1{fill:#fff;}</style></defs><path class="cls-1" d="M389.33,202.67H80a16,16,0,0,1-16-16c0-47.06,40.34-85,86.53-79.47,10.86-37.82,44.41-64.53,84.14-64.53S308,69.38,318.81,107.2c46.14-5.48,86.52,32.41,86.52,79.47A16,16,0,0,1,389.33,202.67Z" transform="translate(0 -0.02)"/><path class="cls-1" d="M386.77,185.17a15.92,15.92,0,0,1-10.94-4.33l-48-45a15.94,15.94,0,0,1-2.92-19.67l56.32-97.49A36.79,36.79,0,0,1,403.61,1.34a37.57,37.57,0,0,1,28.45,3.57l18.59,10.66a37.82,37.82,0,0,1,13.86,50.95L400.62,177.19A16,16,0,0,1,389.1,185a20.25,20.25,0,0,1-2.33.15Z" transform="translate(0 -0.02)"/><path class="cls-1" d="M410.67,512h-352A58.71,58.71,0,0,1,0,453.33V442.67a16,16,0,0,1,16-16H453.33a16,16,0,0,1,16,16v10.66A58.71,58.71,0,0,1,410.67,512Z" transform="translate(0 -0.02)"/><path class="cls-1" d="M248.6,453.33H220.74a170,170,0,0,1-169.84-154l-8-81.94v-.07c-.07-.66-.19-3.3-.19-4a42.7,42.7,0,0,1,42.66-42.66H384a42.71,42.71,0,0,1,42.67,42.66c0,.69-.13,3.33-.2,4l-8,82a170,170,0,0,1-169.83,154Zm-163.27-240,8,81.82A127.56,127.56,0,0,0,220.74,410.67H248.6A127.54,127.54,0,0,0,376,295.15l8-81.92Z" transform="translate(0 -0.02)"/><path class="cls-1" d="M384,384a21.34,21.34,0,0,1-7.94-41.15L450.73,313a29.54,29.54,0,0,0-10.94-57H416a21.34,21.34,0,0,1,0-42.67h23.79A72.22,72.22,0,0,1,466.6,352.6l-74.66,29.86A21.19,21.19,0,0,1,384,384Z" transform="translate(0 -0.02)"/></svg>