<svg id="Capa_1" data-name="Capa 1" xmlns="http://www.w3.org/2000/svg" viewBox="0 0 512 512"><defs><style>.cls-1{fill:#fff;}</style></defs><path class="cls-1" d="M136,169V361.63H375.3V169ZM251.36,312.64a10.54,10.54,0,1,1-15.28-14.51l21.06-22.28H229.68a10.56,10.56,0,0,1-7.64-17.8L259.94,218a10.54,10.54,0,1,1,15.28,14.51l-21.06,22.28h27.45a10.56,10.56,0,0,1,7.65,17.8Z"/><path class="cls-1" d="M136.39,382.73c.47,1.71-1.17-1.52,24.07,44.45a10.5,10.5,0,0,0,9.22,5.47H340.91a10.52,10.52,0,0,0,9.16-5.35c26-46,24.35-42.78,24.84-44.57Z"/><path class="cls-1" d="M147.23,119.06h4.07c-15.22,28.12-14.65,26.69-15.08,28.82H375.08c-.46-2.29.23-.69-15.95-28.82h6.34a10.55,10.55,0,0,0,0-21.1H240.07L203.33,75a10.54,10.54,0,0,0-11.15,17.88L200.35,98H147.23a10.55,10.55,0,0,0,0,21.1Z"/></svg>