<svg id="Capa_1" data-name="Capa 1" xmlns="http://www.w3.org/2000/svg" viewBox="0 0 342 512"><defs><style>.cls-1{fill:#fff;}</style></defs><path class="cls-1" d="M85,136.27V410.8H426V136.27ZM249.39,341a15,15,0,1,1-21.78-20.67l30-31.74H218.5c-13.14,0-19.93-15.81-10.89-25.37l54-57.11a15,15,0,1,1,21.78,20.67l-30,31.75H292.5c13.14,0,19.92,15.81,10.89,25.36Z" transform="translate(-85 0)"/><path class="cls-1" d="M85.55,440.86c.68,2.44-1.66-2.16,34.31,63.35A15,15,0,0,0,133,512H377a15,15,0,0,0,13.05-7.62c37.07-65.54,34.7-61,35.4-63.52Z" transform="translate(-85 0)"/><path class="cls-1" d="M101,65.13h5.8c-21.69,40.07-20.87,38-21.49,41.08H425.69c-.66-3.27.32-1-22.74-41.08H412a15,15,0,0,0,0-30.06H233.3L181,2.29a15,15,0,0,0-15.9,25.49l11.65,7.29H101a15,15,0,0,0,0,30.06Z" transform="translate(-85 0)"/></svg>