<svg id="bold" xmlns="http://www.w3.org/2000/svg" viewBox="0 0 512 512"><defs><style>.cls-1{fill:#fff;}</style></defs><path class="cls-1" d="M333.61,111.06c11.2-26.22,11.71-53.87,1.09-82.49C328.41,11.48,310.55,0,290.26,0,273.79,0,257.88,10.6,243,31.53a27,27,0,0,1-22.08,11.14h-9.47a79.92,79.92,0,0,0-75.91,54.7l-5.16,15.48a74.79,74.79,0,0,0-45.06,68.48,16,16,0,0,0,16,16H368a16,16,0,0,0,16-16c0-32.62-21.16-60.14-50.39-70.27Z" transform="translate(0 0)"/><path class="cls-1" d="M410.67,512h-352A58.71,58.71,0,0,1,0,453.33V442.67a16,16,0,0,1,16-16H453.33a16,16,0,0,1,16,16v10.66A58.71,58.71,0,0,1,410.67,512Z" transform="translate(0 0)"/><path class="cls-1" d="M248.6,453.33H220.74a170,170,0,0,1-169.84-154l-8-81.94v-.07c-.07-.66-.19-3.3-.19-4a42.7,42.7,0,0,1,42.66-42.66H384a42.71,42.71,0,0,1,42.67,42.66c0,.69-.13,3.33-.2,4l-8,82a170,170,0,0,1-169.83,154Zm-163.27-240,8,81.82A127.56,127.56,0,0,0,220.74,410.67H248.6A127.54,127.54,0,0,0,376,295.15l8-81.92Z" transform="translate(0 0)"/><path class="cls-1" d="M384,384a21.34,21.34,0,0,1-7.94-41.15L450.73,313a29.54,29.54,0,0,0-10.94-57H416a21.34,21.34,0,0,1,0-42.67h23.79A72.22,72.22,0,0,1,466.6,352.6l-74.66,29.86A21.19,21.19,0,0,1,384,384Z" transform="translate(0 0)"/></svg>