<svg id="bold" height="512" viewBox="0 0 24 24" width="512" xmlns="http://www.w3.org/2000/svg"><path d="m15.638 5.206c.525-1.229.549-2.525.051-3.867-.295-.801-1.132-1.339-2.083-1.339-.772 0-1.518.497-2.215 1.478-.232.327-.619.522-1.035.522h-.444c-1.616 0-3.046 1.03-3.558 2.564l-.242.726c-1.24.539-2.112 1.774-2.112 3.21 0 .414.336.75.75.75h12.5c.414 0 .75-.336.75-.75 0-1.529-.992-2.819-2.362-3.294z"/><path d="m19.25 24h-16.5c-1.517 0-2.75-1.233-2.75-2.75v-.5c0-.414.336-.75.75-.75h20.5c.414 0 .75.336.75.75v.5c0 1.517-1.233 2.75-2.75 2.75z"/><path d="m11.653 21.25h-1.306c-4.136 0-7.559-3.104-7.961-7.219l-.377-3.841c0-.001 0-.002 0-.003-.003-.031-.009-.155-.009-.187 0-1.103.897-2 2-2h14c1.103 0 2 .897 2 2 0 .032-.006.156-.009.187l-.377 3.844c-.403 4.115-3.825 7.219-7.961 7.219zm-7.653-11.25.376 3.835c.302 3.087 2.87 5.415 5.971 5.415h1.306c3.102 0 5.669-2.328 5.971-5.415l.376-3.84z"/><path d="m18 18c-.397 0-.772-.238-.929-.629-.206-.513.044-1.095.557-1.3l3.5-1.4c.53-.212.872-.716.872-1.286 0-.763-.622-1.385-1.385-1.385h-1.115c-.552 0-1-.448-1-1s.448-1 1-1h1.115c1.866 0 3.385 1.519 3.385 3.385 0 1.392-.835 2.625-2.128 3.143l-3.5 1.4c-.122.049-.248.072-.372.072z"/></svg>