<?xml version="1.0" encoding="utf-8"?>
<!-- Generator: Adobe Illustrator 25.2.1, SVG Export Plug-In . SVG Version: 6.00 Build 0)  -->
<svg version="1.1" id="bold" xmlns="http://www.w3.org/2000/svg" xmlns:xlink="http://www.w3.org/1999/xlink" x="0px" y="0px"
	 viewBox="0 0 512 512" style="enable-background:new 0 0 512 512;" xml:space="preserve">
<style type="text/css">
	.st0{fill:#FFFFFF;}
</style>
<path class="st0" d="M469.3,298.7c-10.5,0-19.6-7.7-21.1-18.3l-16.1-112.7c-1.5-10.5-10.6-18.3-21.1-18.3h-16.3
	c-11.8,0-21.3-9.6-21.3-21.3s9.5-21.3,21.3-21.3H411c31.6,0,58.9,23.6,63.4,55l16.1,112.7c1.7,11.7-6.4,22.5-18.1,24.1
	C471.3,298.6,470.3,298.7,469.3,298.7L469.3,298.7z"/>
<path class="st0" d="M384,362.7H128c-11.8,0-21.3-9.6-21.3-21.3S116.2,320,128,320h256c11.8,0,21.3,9.6,21.3,21.3
	S395.8,362.7,384,362.7z"/>
<path class="st0" d="M368,90.7H144c-6,0-11.5-3.4-14.3-8.7c-2.7-5.4-2.2-11.8,1.3-16.7L161,24.2C171.9,9,189.7,0,208.4,0h95.2
	c18.7,0,36.5,9,47.4,24.2l29.9,41.1c3.5,4.9,4,11.3,1.3,16.7C379.6,87.3,374,90.7,368,90.7L368,90.7z"/>
<path class="st0" d="M144,80h16c0-4.1-1.5-7.7-4.1-10.7c-3-3.4-7.5-5.3-11.9-5.3H37.3c-6.4,0-12.4,3.8-14.7,9.8
	c-2.6,6-1.3,13,3.4,17.5l96,96c3,3,7,4.7,11.3,4.7c1.7,0,3.6-0.2,5.3-0.9c0.2,0,0.2-0.2,0.4-0.2l-16-85.8c-0.2-1.3-0.4-2.6-0.4-3.8
	C122.7,89.6,132.3,80,144,80L144,80z"/>
<path class="st0" d="M341.4,357.3c-1.3,0-2.6-0.1-4-0.4c-11.6-2.2-19.2-13.3-17-24.9l42.3-225.5l-213.3,0l42.3,225.4
	c2.2,11.6-5.4,22.7-17,24.9c-11.7,2.2-22.7-5.5-24.9-17l-42.3-225.5c-0.5-2.6-0.7-5.2-0.7-7.8c0-23.5,19.1-42.7,42.7-42.7h213.3
	c23.5,0,42.7,19.1,42.7,42.7c0,2.6-0.3,5.2-0.7,7.7l-42.3,225.6C360.4,350.2,351.4,357.3,341.4,357.3z"/>
<path class="st0" d="M362.7,512H149.3c-23.5,0-42.7-19.1-42.7-42.7c0-4.7,0.6-8.8,2-12.8l36.7-121.4c3.4-11.3,15.4-17.7,26.6-14.2
	c11.3,3.4,17.7,15.3,14.3,26.6l-36.9,122l213.4-0.2l-36.8-121.8c-3.4-11.3,3-23.2,14.3-26.6c11.2-3.4,23.2,3,26.6,14.2l36.9,122
	c1.2,3.4,1.8,7.4,1.8,12.2C405.3,492.9,386.2,512,362.7,512z"/>
<path class="st0" d="M234.6,362.7c-10.6,0-19.8-7.9-21.1-18.7l-32-261.3c-1.5-11.7,6.9-22.3,18.6-23.8c11.8-1.5,22.3,6.9,23.7,18.6
	l32,261.3c1.4,11.7-6.9,22.3-18.6,23.8C236.4,362.6,235.5,362.7,234.6,362.7z"/>
<path class="st0" d="M277.4,362.7c-0.9,0-1.7,0-2.6-0.1c-11.7-1.4-20-12.1-18.6-23.8l32-261.3c1.4-11.7,11.9-20,23.7-18.6
	c11.7,1.4,20,12.1,18.6,23.8l-32,261.3C297.2,354.7,288,362.7,277.4,362.7z"/>
<path class="st0" d="M202.7,512c-1.5,0-3-0.1-4.5-0.5c-11.5-2.5-18.9-13.8-16.4-25.3l32-149.3c2.5-11.5,13.7-18.9,25.3-16.4
	c11.5,2.5,18.9,13.8,16.4,25.3l-32,149.3C221.4,505.2,212.5,512,202.7,512L202.7,512z"/>
<path class="st0" d="M309.3,512c-9.9,0-18.7-6.8-20.8-16.9l-32-149.3c-2.5-11.5,4.9-22.9,16.4-25.3c11.6-2.5,22.8,4.9,25.3,16.4
	l32,149.3c2.5,11.5-4.9,22.9-16.4,25.3C312.3,511.9,310.8,512,309.3,512L309.3,512z"/>
</svg>
