<svg id="bold" height="512" viewBox="0 0 24 24" width="512" xmlns="http://www.w3.org/2000/svg"><path d="m21.999 14c-.49 0-.918-.36-.989-.858l-.755-5.283c-.069-.49-.495-.859-.989-.859h-.766c-.553 0-1-.448-1-1s.447-1 1-1h.766c1.483 0 2.76 1.107 2.97 2.576l.755 5.282c.078.547-.302 1.053-.849 1.131-.048.008-.096.011-.143.011z"/><path d="m18 17h-12c-.553 0-1-.448-1-1s.447-1 1-1h12c.553 0 1 .448 1 1s-.447 1-1 1z"/><path d="m17.25 4.25h-10.5c-.282 0-.54-.158-.668-.41s-.104-.553.062-.781l1.401-1.926c.515-.71 1.347-1.133 2.224-1.133h4.463c.877 0 1.709.423 2.224 1.133l1.401 1.926c.166.229.189.53.062.782s-.387.409-.669.409z"/><path d="m6.75 3.75h.75c0-.19-.07-.36-.19-.5-.14-.16-.35-.25-.56-.25h-5c-.3 0-.58.18-.69.46-.12.28-.06.61.16.82l4.5 4.5c.14.14.33.22.53.22.08 0 .17-.01.25-.04.01 0 .01-.01.02-.01l-.75-4.02c-.01-.06-.02-.12-.02-.18 0-.55.45-1 1-1z"/><path d="m16.001 16.75c-.062 0-.123-.005-.186-.017-.543-.102-.9-.625-.798-1.167l1.983-10.568-10 .002 1.982 10.565c.103.543-.255 1.065-.798 1.167-.548.103-1.065-.256-1.167-.798l-1.983-10.568c-.022-.123-.034-.243-.034-.366 0-1.103.897-2 2-2h10c1.103 0 2 .897 2 2 0 .123-.012.243-.033.36l-1.984 10.574c-.09.481-.51.816-.982.816z"/><path d="m17 24h-10c-1.103 0-2-.897-2-2 0-.222.029-.412.093-.599l1.72-5.69c.16-.528.722-.828 1.246-.667.529.16.828.718.668 1.247l-1.729 5.72 10.002-.011-1.727-5.71c-.16-.529.139-1.087.668-1.247.526-.161 1.086.139 1.246.667l1.729 5.72c.055.158.084.348.084.57 0 1.103-.897 2-2 2z"/><path d="m10.999 17c-.498 0-.93-.372-.991-.878l-1.5-12.25c-.068-.549.322-1.047.871-1.115.552-.068 1.047.323 1.113.871l1.5 12.25c.067.548-.322 1.047-.871 1.114-.041.006-.082.008-.122.008z"/><path d="m13.001 17c-.04 0-.081-.002-.122-.007-.549-.067-.938-.566-.871-1.114l1.5-12.25c.066-.548.559-.938 1.113-.871.549.067.938.566.871 1.114l-1.5 12.25c-.061.506-.493.878-.991.878z"/><path d="m9.501 24c-.069 0-.14-.007-.211-.022-.54-.116-.884-.647-.768-1.188l1.5-7c.115-.54.644-.884 1.188-.769.54.116.884.647.768 1.188l-1.5 7c-.101.47-.516.791-.977.791z"/><path d="m14.499 24c-.462 0-.876-.321-.977-.791l-1.5-7c-.116-.54.228-1.072.768-1.188.543-.117 1.071.229 1.188.769l1.5 7c.116.54-.228 1.072-.768 1.188-.071.015-.142.022-.211.022z"/></svg>