<svg id="Capa_1" data-name="Capa 1" xmlns="http://www.w3.org/2000/svg" viewBox="0 0 455.87 512"><defs><style>.cls-1{fill:#fff;}</style></defs><path class="cls-1" d="M178.07,136c0,5.87-6.36,15.07-10.61,19.4a15,15,0,0,0,21.21,21.21c2-2,19.4-20,19.4-40.61s-17.4-38.63-19.35-40.56c-4.3-4.37-10.65-13.56-10.65-19.44s6.35-15.07,10.65-19.44A15,15,0,0,0,167.46,35.4c-2,2-19.39,20-19.39,40.6s17.4,38.63,19.35,40.56C171.71,120.93,178.07,130.13,178.07,136Z" transform="translate(-28.07 0)"/><path class="cls-1" d="M268.07,106c0,5.87-6.36,15.07-10.61,19.4a15,15,0,0,0,21.21,21.21c2-2,19.4-20,19.4-40.61s-17.41-38.63-19.35-40.56c-4.3-4.37-10.65-13.56-10.65-19.44s6.35-16.07,10.65-20.44A15,15,0,0,0,257.46,4.4c-2,2-19.39,21-19.39,41.6s17.4,38.63,19.35,40.56c4.29,4.37,10.65,13.57,10.65,19.44Z" transform="translate(-28.07 0)"/><path class="cls-1" d="M178.08,361h30V331.18c-.57-3.89-6.86-13.3-15-23-8.21,9.74-14.52,19.22-15,23.05Z" transform="translate(-28.07 0)"/><path class="cls-1" d="M358.59,419.59c84.33-8.83,127.05-63,125.29-114-1.3-37.78-26.38-64.17-61-64.17a85.79,85.79,0,0,0-25.25,4.08,59,59,0,0,1,1-8.87A15,15,0,0,0,388.07,211h-180v68.91c11.52,12.18,30,34.31,30,51.09v45a15,15,0,0,1-15,15h-60a15,15,0,0,1-15-15V331c0-16.78,18.47-38.91,30-51.09V211h-120c-6.07,0-12,3-14.37,8.61S42.16,231,46.45,235.32c2.07,4.16,2.9,21.52,3.57,35.46C53.3,339,60.12,482,223.1,482c69.92,0,111-27.19,135.49-62.41Zm95.31-113c1.1,32.05-23.13,67.89-77.74,80.16,15-37.17,18.16-77.87,19.68-107.95a54.68,54.68,0,0,1,27.06-7.43C444.89,271.4,453.34,290.36,453.9,306.61Z" transform="translate(-28.07 0)"/><path class="cls-1" d="M43.07,512h360a15,15,0,0,0,0-30h-360a15,15,0,0,0,0,30Z" transform="translate(-28.07 0)"/></svg>